# xmcd
#
# Track frame offsets:
# 150
# 17685
# 35024
# 49922
# 66428
# 85763
# 102083
# 117670
# 136517
# 151100
# 163966
# 177545
# 191945
# 205986
# 223970
# 238585
# 257092
# 274283
# 287275
# 302225
# 319558
#
# Disc length: 4473 seconds
#
# Revision: 0
# Processed by: cddbd v1.5.1PL2 Copyright (c) Steve Scherf et al.
# Submitted via: Audion 3.0.2 (http://www.panic.com/audion/)
#
DISCID=3c117715
DTITLE=Compilation - Annee 2005
DYEAR=1900
DGENRE=
TTITLE0=Daniel Powter - Bad day
TTITLE1=Sinsemilia - Tout le bonheur du monde
TTITLE2=Calogero - Si seulement je pouvais lui manquer
TTITLE3=Ilona - Un monde parfait
TTITLE4=Maroon 5 - She will be loved
TTITLE5=Celine Dion - Je ne vous oublie pas
TTITLE6=Lemar - If there's any justice
TTITLE7=De Palmas - elle danse seule
TTITLE8=Elodie Frege - Je te dis non
TTITLE9=KT TUnstall - Black horse and a cherry tree
TTITLE10=Emmanuel Moire - Mon essentiel
TTITLE11=Madeleine Peyroux - Don't wait too much
TTITLE12=Garou - Les filles
TTITLE13=Helene Segara - Ailleurs comme ici
TTITLE14=Moby - Lift me up
TTITLE15=Chimene Badi - Je viens du sud
TTITLE16=Romane Serda and Renaud - Anais Nin
TTITLE17=Madness - Shame and scandal
TTITLE18=Yannick Noah - Metisse
TTITLE19=Lara Fabian - La lettre
TTITLE20=James Blunt - You're beautifull
EXTD=
EXTT0=
EXTT1=
EXTT2=
EXTT3=
EXTT4=
EXTT5=
EXTT6=
EXTT7=
EXTT8=
EXTT9=
EXTT10=
EXTT11=
EXTT12=
EXTT13=
EXTT14=
EXTT15=
EXTT16=
EXTT17=
EXTT18=
EXTT19=
EXTT20=
PLAYORDER=
